<?xml version="1.0" encoding="UTF-8"?>
<!DOCTYPE svg PUBLIC "-//W3C//DTD SVG 1.1//EN" "http://www.w3.org/Graphics/SVG/1.1/DTD/svg11.dtd">
<!-- Creator: CorelDRAW X6 -->
<svg xmlns="http://www.w3.org/2000/svg" xml:space="preserve" width="210mm" height="297mm" version="1.1" style="shape-rendering:geometricPrecision; text-rendering:geometricPrecision; image-rendering:optimizeQuality; fill-rule:evenodd; clip-rule:evenodd"
viewBox="0 0 21000 29700"
 xmlns:xlink="http://www.w3.org/1999/xlink">
 <defs>
  <style type="text/css">
   <![CDATA[
    .str0 {stroke:#373435;stroke-width:20}
    .fil1 {fill:#6B809B}
    .fil0 {fill:black}
    .fil2 {fill:#445162}
    .fil3 {fill:white}
   ]]>
  </style>
 </defs>
 <g id="Слой_x0020_1">
  <metadata id="CorelCorpID_0Corel-Layer"/>
  <path class="fil0" d="M10764 14835c86,-69 17,-176 -78,-162 47,-122 -145,-198 -205,-86 -82,-95 -218,4 -145,105 -142,-38 -213,143 -93,184 -60,55 -13,148 72,138 -74,135 157,222 202,85 59,61 157,10 146,-73 130,60 215,-133 101,-191l0 0zm-330 17c0,-29 24,-53 54,-53 30,0 54,24 54,53 0,29 -24,53 -54,53 -30,0 -54,-24 -54,-53zm286 -135c40,12 47,44 28,71 -11,16 -28,26 -49,28 -35,4 -98,11 -120,14 -2,-7 -4,-13 -7,-19 5,-5 62,-59 95,-85l0 0c20,-16 42,-12 53,-9l0 0zm-183 -130c38,-28 98,-6 110,35 5,19 0,39 -15,56l0 0c-22,27 -66,75 -89,100 -6,-4 -12,-8 -19,-10 -2,-27 -7,-92 -10,-126 -2,-23 6,-42 23,-55zm-175 32c10,-30 46,-33 73,-16 10,7 23,19 26,42 4,32 9,92 11,118 -7,1 -14,3 -20,6 -16,-22 -53,-71 -76,-98 -14,-16 -19,-35 -13,-52l0 0zm-78 113c16,-3 47,-5 75,21 27,25 42,42 50,51 -4,6 -7,13 -10,20 -19,3 -72,12 -112,15 -83,6 -81,-91 -3,-106zm171 381c-35,26 -96,6 -108,-35 -5,-19 0,-40 15,-58l0 0c21,-25 59,-65 81,-88 7,4 14,6 21,8 3,28 9,83 12,119 2,23 -6,42 -23,54l0 0zm162 -60c-9,29 -38,37 -60,23 -14,-9 -24,-27 -27,-50 -4,-28 -8,-66 -10,-89 6,-2 11,-4 16,-7 19,18 50,50 69,72l0 0c13,15 17,33 12,50zm108 -61c-20,5 -41,0 -59,-14l0 0c-26,-20 -70,-57 -96,-79 4,-6 7,-13 9,-20 31,-3 92,-8 128,-11 23,-2 43,6 55,21 26,33 6,93 -36,104z"/>
  <path class="fil1" d="M10489 14905c-30,0 -54,-24 -54,-53 0,-29 24,-53 54,-53 30,0 54,24 54,53 0,29 -24,53 -54,53zm91 -74c-2,-7 -4,-13 -7,-19 5,-5 62,-59 95,-85l0 0c20,-16 42,-12 53,-9 40,12 47,44 28,71 -11,16 -28,26 -49,28l-120 14zm-179 -8c-19,3 -72,12 -112,15 -83,6 -81,-91 -3,-106 16,-3 47,-5 75,21 27,25 42,42 50,51 -4,6 -7,13 -10,20zm51 -54c-16,-22 -53,-71 -76,-98 -14,-16 -19,-35 -13,-52 10,-30 46,-33 73,-16 10,7 23,19 26,42 4,32 9,92 11,118 -7,1 -14,3 -20,6zm72 -1c-2,-27 -7,-92 -10,-126 -2,-23 6,-42 23,-55 38,-28 98,-6 110,35 5,19 0,39 -15,56l0 0c-22,27 -66,75 -89,100 -6,-4 -12,-8 -19,-10zm-281 107c-60,55 -13,148 72,138 -74,135 157,222 202,85 59,61 157,10 146,-73 130,60 215,-133 101,-191 86,-69 17,-176 -78,-162 47,-122 -145,-198 -205,-86 -82,-95 -218,4 -145,105 -142,-38 -213,143 -93,184zm120 145c21,-25 59,-65 81,-88 7,4 14,6 21,8 3,28 9,83 12,119 2,23 -6,42 -23,54 -35,26 -96,6 -108,-35 -5,-19 0,-40 15,-58l0 0zm157 -83c6,-2 11,-4 16,-7 19,18 50,50 69,72l0 0c13,15 17,33 12,50 -9,29 -38,37 -60,23 -14,-9 -24,-27 -27,-50 -4,-28 -8,-66 -10,-89zm49 -40c4,-6 7,-13 9,-20 31,-3 92,-8 128,-11 23,-2 43,6 55,21 26,33 6,93 -36,104 -20,5 -41,0 -59,-14l0 0c-26,-20 -70,-57 -96,-79z"/>
  <path class="fil1" d="M10489 14905c-30,0 -54,-24 -54,-53 0,-29 24,-53 54,-53 30,0 54,24 54,53 0,29 -24,53 -54,53zm91 -74c-2,-7 -4,-13 -7,-19 5,-5 62,-59 95,-85l0 0c20,-16 42,-12 53,-9 40,12 47,44 28,71 -11,16 -28,26 -49,28l-120 14zm-179 -8c-19,3 -72,12 -112,15 -83,6 -81,-91 -3,-106 16,-3 47,-5 75,21 27,25 42,42 50,51 -4,6 -7,13 -10,20zm-25 -152c-14,-16 -19,-35 -13,-52 10,-30 46,-33 73,-16 10,7 23,19 26,42 4,32 9,92 11,118 -7,1 -14,3 -20,6 -16,-22 -53,-71 -76,-98zm148 97c-2,-27 -7,-92 -10,-126 -2,-23 6,-42 23,-55 38,-28 98,-6 110,35 5,19 0,39 -15,56l0 0c-22,27 -66,75 -89,100 -6,-4 -12,-8 -19,-10zm-281 107c-60,55 -13,148 72,138 -74,135 157,222 202,85 59,61 157,10 146,-73 130,60 215,-133 101,-191 86,-69 17,-176 -78,-162 47,-122 -145,-198 -205,-86 -82,-95 -218,4 -145,105 -142,-38 -213,143 -93,184zm120 145c21,-25 59,-65 81,-88 7,4 14,6 21,8 3,28 9,83 12,119 2,23 -6,42 -23,54 -35,26 -96,6 -108,-35 -5,-19 0,-40 15,-58l0 0zm157 -83c6,-2 11,-4 16,-7 19,18 50,50 69,72l0 0c13,15 17,33 12,50 -9,29 -38,37 -60,23 -14,-9 -24,-27 -27,-50 -4,-28 -8,-66 -10,-89zm49 -40c4,-6 7,-13 9,-20 31,-3 92,-8 128,-11 23,-2 43,6 55,21 26,33 6,93 -36,104 -20,5 -41,0 -59,-14l0 0c-26,-20 -70,-57 -96,-79z"/>
  <path class="fil2" d="M10466 14940c-8,-2 -15,-5 -21,-8 -23,23 -61,63 -81,88l0 0c-15,18 -20,39 -15,58 11,41 72,61 108,35 16,-12 25,-31 23,-54 -3,-36 -9,-91 -12,-119z"/>
  <path class="fil2" d="M10520 14938c2,22 7,61 10,89 3,23 13,41 27,50 22,14 50,5 60,-23 5,-17 1,-35 -12,-50l0 0c-19,-22 -50,-54 -69,-72 -5,3 -10,5 -16,7z"/>
  <path class="fil2" d="M10570 14898c26,22 69,59 96,79l0 0c18,14 40,20 59,14 43,-11 63,-71 36,-104 -12,-15 -32,-23 -55,-21 -37,3 -97,8 -128,11 -2,7 -5,14 -9,20z"/>
  <path class="fil2" d="M10580 14831l120 -14c21,-2 38,-13 49,-28 19,-27 12,-59 -28,-71 -12,-3 -34,-7 -53,9l0 0c-33,26 -90,80 -95,85 3,6 6,12 7,19z"/>
  <path class="fil2" d="M10543 14779c23,-25 67,-73 89,-100l0 0c14,-17 20,-38 15,-56 -11,-41 -72,-62 -110,-35 -17,13 -25,32 -23,55 3,34 8,99 10,126 7,3 13,6 19,10z"/>
  <path class="fil2" d="M10472 14764c-2,-25 -7,-85 -11,-118 -3,-23 -16,-35 -26,-42 -27,-17 -63,-15 -73,16 -5,17 -1,36 13,52 23,27 60,76 76,98 6,-3 13,-5 20,-6z"/>
  <path class="fil2" d="M10411 14803c-8,-9 -23,-26 -50,-51 -29,-25 -60,-24 -75,-21 -78,16 -79,113 3,106 40,-4 93,-12 112,-15 2,-7 6,-14 10,-20z"/>
  <path class="fil2 str0" d="M10489 14800c-30,0 -54,24 -54,53 0,29 24,53 54,53 30,0 54,-24 54,-53 0,-29 -24,-53 -54,-53z"/>
  <path class="fil3" d="M10489 14905c-30,0 -54,-24 -54,-53 0,-29 24,-53 54,-53 30,0 54,24 54,53 0,29 -24,53 -54,53zm-23 35c3,28 9,83 12,119 2,23 -6,42 -23,54 -35,26 -96,6 -108,-35 -5,-19 0,-40 15,-58l0 0c21,-25 59,-65 81,-88 7,4 14,6 21,8zm65 86c-4,-28 -8,-66 -10,-89 6,-2 11,-4 16,-7 19,18 50,50 69,72l0 0c13,15 17,33 12,50 -9,29 -38,37 -60,23 -14,-9 -24,-27 -27,-50zm49 -195c-2,-7 -4,-13 -7,-19 5,-5 62,-59 95,-85l0 0c20,-16 42,-12 53,-9 40,12 47,44 28,71 -11,16 -28,26 -49,28l-120 14zm-179 -8c-19,3 -72,12 -112,15 -83,6 -81,-91 -3,-106 16,-3 47,-5 75,21 27,25 42,42 50,51 -4,6 -7,13 -10,20zm-25 -152c-14,-16 -19,-35 -13,-52 10,-30 46,-33 73,-16 10,7 23,19 26,42 4,32 9,92 11,118 -7,1 -14,3 -20,6 -16,-22 -53,-71 -76,-98zm148 97c-2,-27 -7,-92 -10,-126 -2,-23 6,-42 23,-55 38,-28 98,-6 110,35 5,19 0,39 -15,56l0 0c-22,27 -66,75 -89,100 -6,-4 -12,-8 -19,-10zm-281 107c-60,55 -13,148 72,138 -74,135 157,222 202,85 59,61 157,10 146,-73 130,60 215,-133 101,-191 86,-69 17,-176 -78,-162 47,-122 -145,-198 -205,-86 -82,-95 -218,4 -145,105 -142,-38 -213,143 -93,184zm422 102c-26,-20 -70,-57 -96,-79 4,-6 7,-13 9,-20 31,-3 92,-8 128,-11 23,-2 43,6 55,21 26,33 6,93 -36,104 -20,5 -41,0 -59,-14l0 0z"/>
  <path class="fil2" d="M10435 14853c0,29 24,53 54,53 30,0 54,-24 54,-53 0,-29 -24,-53 -54,-53 -30,0 -54,24 -54,53z"/>
 </g>
</svg>
